<svg id="visual" viewBox="0 0 900 600" width="900" height="600" xmlns="http://www.w3.org/2000/svg" xmlns:xlink="http://www.w3.org/1999/xlink" version="1.1"><rect width="900" height="600" fill="#FFFFFF"></rect><g><g transform="translate(893 502)"><path d="M97.6 -34.1C109.6 5.3 90.9 52.3 57.2 76.2C23.4 100.1 -25.3 101 -56.7 78.1C-88.1 55.3 -102.3 8.7 -90 -31.1C-77.7 -70.9 -38.8 -103.9 2 -104.6C42.8 -105.2 85.6 -73.5 97.6 -34.1Z" fill="none" stroke="#ff6b6b" stroke-width="20"></path></g><g transform="translate(523 119)"><path d="M89.6 -24.3C102.9 11.7 91.3 60.7 60 83.7C28.7 106.7 -22.3 103.8 -54.6 79.4C-86.8 55 -100.2 9 -88 -25.6C-75.8 -60.1 -37.9 -83.3 0.1 -83.4C38.2 -83.4 76.3 -60.3 89.6 -24.3Z" fill="none" stroke="#ff6b6b" stroke-width="20"></path></g><g transform="translate(266 379)"><path d="M81 -27.5C90.8 3.5 74.5 41.9 46.4 61.8C18.3 81.7 -21.6 83.1 -46.7 64.8C-71.9 46.4 -82.4 8.1 -72.1 -23.7C-61.9 -55.4 -30.9 -80.7 2.4 -81.4C35.7 -82.2 71.3 -58.5 81 -27.5Z" fill="none" stroke="#ff6b6b" stroke-width="20"></path></g><g transform="translate(543 489)"><path d="M66.2 -23C73.7 1.5 59.3 31.7 36.1 48.2C12.9 64.7 -19.2 67.6 -39.1 53.2C-59 38.9 -66.8 7.3 -58.3 -18.6C-49.7 -44.6 -24.9 -64.9 2.3 -65.6C29.4 -66.3 58.7 -47.5 66.2 -23Z" stroke="#ff6b6b" fill="none" stroke-width="20"></path></g><g transform="translate(106 36)"><path d="M60.9 -20.3C70.1 8.7 62.8 42.6 41.7 58.1C20.6 73.7 -14.4 70.8 -37.9 53.5C-61.3 36.1 -73.2 4.2 -65 -23.4C-56.8 -51 -28.4 -74.4 -1.3 -74C25.8 -73.6 51.6 -49.4 60.9 -20.3Z" stroke="#ff6b6b" fill="none" stroke-width="20"></path></g></g></svg>